<?xml version="1.0" standalone="no"?>
<!DOCTYPE svg PUBLIC "-//W3C//DTD SVG 20010904//EN"
 "http://www.w3.org/TR/2001/REC-SVG-20010904/DTD/svg10.dtd">
<svg version="1.0" xmlns="http://www.w3.org/2000/svg"
 width="540.000000pt" height="710.000000pt" viewBox="0 0 540.000000 710.000000"
 preserveAspectRatio="xMidYMid meet">

<g transform="translate(0.000000,710.000000) scale(0.100000,-0.100000)"
fill="#000000" stroke="none">
<path d="M0 3550 l0 -3550 2700 0 2700 0 0 3550 0 3550 -2700 0 -2700 0 0
-3550z m1595 -1848 c90 -46 136 -127 143 -252 6 -104 -13 -179 -61 -241 -48
-63 -104 -89 -191 -89 -115 1 -189 49 -238 155 -32 70 -33 228 -2 295 30 66
72 110 129 137 41 20 61 23 115 20 39 -2 81 -12 105 -25z m-445 -37 l0 -55
-115 0 -115 0 0 -70 0 -70 100 0 100 0 0 -55 0 -55 -100 0 -100 0 0 -115 0
-115 -55 0 -55 0 0 295 0 295 170 0 170 0 0 -55z m790 -155 c0 -229 5 -255 55
-278 35 -16 60 -15 95 3 51 26 55 43 58 273 l4 213 51 -3 52 -3 0 -225 0 -225
-28 -47 c-39 -67 -95 -98 -178 -98 -83 0 -142 29 -184 88 l-30 44 -3 220 c-2
121 -1 226 2 234 4 9 22 14 56 14 l50 0 0 -210z m603 120 c27 -47 78 -137 113
-200 l64 -115 0 203 0 202 50 0 50 0 0 -297 0 -298 -56 1 -56 2 -105 188 c-58
104 -108 192 -111 196 -4 4 -7 -81 -7 -189 l0 -197 -52 -4 -53 -3 0 301 0 301
57 -3 57 -3 49 -85z m728 53 c93 -50 135 -144 127 -285 -7 -131 -57 -209 -161
-253 -26 -11 -72 -15 -162 -15 l-125 0 0 296 0 297 134 -6 c124 -5 139 -7 187
-34z m534 15 c65 -34 95 -87 95 -166 0 -61 -27 -111 -76 -139 -21 -13 -38 -29
-36 -35 2 -7 32 -59 68 -115 35 -57 64 -105 64 -108 0 -3 -28 -5 -62 -3 l-62
3 -64 108 c-58 96 -67 107 -93 107 l-29 0 0 -110 0 -110 -55 0 -54 0 -3 291
c-2 160 -1 293 2 296 3 3 66 3 140 1 97 -3 143 -9 165 -20z m244 -13 c8 -16
34 -72 57 -124 l43 -94 41 89 c23 49 49 106 57 127 l16 38 58 -2 c33 -1 59 -4
59 -7 0 -3 -41 -83 -91 -179 l-91 -174 4 -115 3 -114 -57 0 -58 0 0 124 0 124
-85 164 c-47 91 -85 168 -85 172 0 4 26 6 57 4 53 -3 59 -5 72 -33z"/>
<path d="M1395 1587 c-42 -42 -58 -102 -53 -193 6 -85 31 -134 84 -159 41 -19
92 -15 131 10 39 26 63 90 63 170 0 94 -14 137 -56 174 -29 26 -43 31 -85 31
-44 0 -55 -4 -84 -33z"/>
<path d="M3050 1420 l0 -190 55 0 c130 0 194 75 183 214 -10 120 -57 166 -170
166 l-68 0 0 -190z"/>
<path d="M3610 1543 c0 -40 1 -76 3 -80 1 -5 33 -8 70 -8 60 0 71 3 88 24 26
32 25 82 -3 108 -18 16 -39 22 -91 25 l-67 3 0 -72z"/>
</g>
</svg>
