<?xml version="1.0" standalone="no"?>
<!DOCTYPE svg PUBLIC "-//W3C//DTD SVG 20010904//EN"
 "http://www.w3.org/TR/2001/REC-SVG-20010904/DTD/svg10.dtd">
<svg version="1.0" xmlns="http://www.w3.org/2000/svg"
 width="532.000000pt" height="665.000000pt" viewBox="0 0 532.000000 665.000000"
 preserveAspectRatio="xMidYMid meet">

<g transform="translate(0.000000,665.000000) scale(0.100000,-0.100000)"
fill="#000000" stroke="none">
<path d="M0 3325 l0 -3325 2660 0 2660 0 0 3325 0 3325 -2660 0 -2660 0 0
-3325z m2869 2401 c248 -46 452 -126 651 -256 254 -167 452 -389 588 -660 62
-123 141 -334 130 -346 -3 -2 -13 22 -23 54 l-17 59 -44 -2 c-24 -2 -41 1 -38
6 3 5 0 9 -7 9 -6 0 -9 -7 -5 -17 26 -80 66 -248 70 -298 3 -33 3 -49 0 -35
-29 153 -39 197 -65 274 -16 50 -27 98 -24 110 5 16 4 18 -4 6 -8 -12 -12 -9
-21 15 -21 55 -92 190 -138 260 -230 356 -615 614 -1047 702 -137 27 -454 25
-591 -5 -317 -69 -588 -216 -820 -447 -173 -173 -286 -347 -375 -580 -21 -55
-39 -95 -39 -88 0 18 49 152 76 205 28 54 30 68 10 68 -7 0 -20 10 -29 23 -13
20 -13 26 5 60 11 22 18 41 15 43 -5 6 -100 -180 -122 -239 -10 -26 -20 -46
-22 -43 -8 8 69 181 119 269 148 260 394 506 654 655 210 120 374 172 679 216
61 9 353 -3 434 -18z m-49 -602 c304 -78 528 -320 634 -687 31 -106 56 -271
56 -366 0 -39 4 -71 10 -71 34 0 38 219 6 365 -34 161 -104 331 -171 419 -54
71 -50 73 19 6 153 -149 270 -378 312 -610 21 -118 29 -305 15 -357 -11 -41
-68 -103 -94 -103 -7 0 2 9 20 20 47 28 65 62 70 133 6 74 -14 278 -29 292 -7
7 -9 0 -6 -22 3 -18 1 -33 -4 -33 -5 0 -6 -6 -2 -12 6 -10 4 -10 -8 0 -13 10
-17 10 -22 -4 -5 -13 -9 -14 -21 -4 -14 11 -14 9 -5 -16 9 -26 9 -27 -4 -11
-11 14 -15 15 -19 5 -2 -7 -3 -1 -1 15 2 15 0 27 -5 27 -5 0 -11 -22 -15 -49
-11 -85 -56 -96 -56 -14 0 26 -3 43 -7 40 -3 -4 -6 -23 -5 -42 1 -19 -3 -37
-8 -40 -6 -3 -10 1 -10 9 0 9 -7 16 -16 16 -13 0 -14 -3 -5 -14 9 -11 9 -16 0
-22 -8 -4 -9 -3 -5 4 4 7 2 12 -3 12 -6 0 -11 -7 -11 -15 0 -8 -7 -15 -16 -15
-8 0 -12 5 -8 11 4 8 1 8 -12 1 -11 -5 -25 -7 -31 -5 -7 3 -13 0 -13 -6 0 -6
8 -11 18 -11 14 0 14 -2 3 -9 -11 -7 -10 -10 5 -14 14 -3 15 -5 3 -6 -9 0 -24
8 -34 19 -22 24 -35 26 -35 5 0 -8 5 -15 12 -15 6 0 8 -3 5 -6 -4 -4 -14 -1
-23 7 -19 15 -47 21 -38 8 3 -5 10 -7 15 -4 5 4 9 1 9 -4 0 -6 -5 -11 -11 -11
-7 0 -18 -8 -25 -17 -12 -16 -13 -15 -8 10 2 15 0 27 -6 27 -5 0 -10 -7 -10
-16 0 -15 -2 -15 -26 1 -14 9 -28 14 -32 11 -3 -3 0 -6 8 -6 9 0 9 -4 2 -12
-5 -7 -12 -22 -15 -33 -4 -18 -5 -17 -6 3 0 13 -5 21 -10 17 -5 -3 -12 -1 -16
4 -3 6 -18 3 -37 -9 -24 -14 -35 -16 -45 -8 -7 6 -29 8 -51 5 -20 -4 -43 -2
-51 3 -10 6 -19 3 -29 -8 -12 -16 -13 -15 -8 3 6 19 5 19 -8 2 -9 -12 -16 -14
-21 -8 -10 17 -45 13 -45 -5 0 -9 5 -12 12 -8 7 4 8 3 4 -4 -9 -16 -36 -3 -29
14 6 16 -22 20 -32 4 -4 -6 -12 -7 -18 -3 -22 14 -48 11 -42 -5 4 -12 3 -12
-9 -3 -8 7 -27 14 -42 17 -38 7 -46 13 -40 31 4 8 1 11 -5 7 -6 -3 -8 -16 -5
-28 4 -19 4 -19 -8 -4 -7 9 -23 18 -37 20 -13 2 -30 7 -38 12 -9 6 -12 5 -8
-1 4 -6 0 -13 -8 -17 -9 -3 -19 3 -25 14 -10 18 -13 19 -37 6 -24 -12 -29 -12
-46 8 -13 15 -17 16 -14 4 4 -10 -1 -18 -14 -21 -10 -3 -17 -2 -15 2 3 4 1 13
-5 21 -7 13 -9 13 -10 0 -1 -8 -1 -19 0 -25 1 -5 -7 -1 -17 11 -9 11 -24 18
-31 16 -8 -3 -11 0 -8 5 3 5 -3 9 -13 9 -10 0 -16 -4 -14 -8 3 -4 3 -8 0 -8
-2 0 -13 -3 -23 -6 -13 -4 -14 -3 -5 4 11 7 11 10 -2 15 -8 3 -18 2 -21 -3 -3
-5 -16 -4 -31 2 -22 10 -28 9 -40 -7 -13 -17 -19 -14 -15 8 1 7 -15 11 -33 8
-5 -1 -4 4 2 11 9 11 7 14 -9 15 -11 1 -17 -2 -14 -8 12 -18 -8 -9 -26 13 -11
11 -19 17 -19 12 0 -6 6 -16 13 -23 10 -11 8 -11 -12 -1 -19 10 -25 9 -33 -1
-7 -11 -14 -8 -32 15 -17 21 -30 27 -45 23 -12 -3 -21 -2 -21 2 0 9 -31 8 -47
-2 -6 -4 -15 -2 -19 4 -4 8 -3 9 4 5 7 -4 12 -5 12 -2 0 2 3 13 6 23 3 10 2
14 -3 8 -4 -5 -18 -16 -30 -22 -18 -10 -21 -10 -17 0 4 12 -11 17 -63 21 -13
0 -23 6 -23 11 0 6 -5 3 -10 -5 -6 -10 -10 -11 -10 -2 0 6 -4 12 -10 12 -5 0
-8 -6 -6 -12 1 -7 1 -9 -2 -5 -2 5 -15 12 -29 18 -13 5 -21 13 -18 19 3 5 -1
10 -9 10 -9 0 -16 -4 -16 -9 0 -5 -9 -7 -20 -4 -11 3 -17 9 -14 14 3 5 0 9 -6
9 -6 0 -8 5 -4 13 6 9 5 9 -8 -1 -12 -10 -17 -10 -27 1 -6 8 -8 17 -4 20 3 4
0 13 -7 22 -7 8 -10 24 -7 35 3 11 1 18 -3 15 -14 -9 -23 -86 -11 -98 6 -6 11
-16 11 -21 0 -6 -6 -2 -12 9 -11 18 -14 13 -24 -40 -6 -33 -12 -49 -13 -37 -2
45 40 227 76 322 60 160 130 270 252 390 58 58 131 120 162 138 52 30 63 33
180 38 160 8 286 -7 419 -52 228 -76 379 -210 479 -426 48 -100 68 -176 90
-328 l17 -115 19 35 c32 62 15 228 -42 400 -81 242 -236 412 -457 500 -126 51
-197 63 -358 64 -82 1 -148 2 -148 3 0 2 26 16 58 32 63 32 172 67 249 81 70
13 267 4 343 -16z m-1850 -571 c-11 -17 -11 -17 -6 0 3 10 6 24 7 30 0 9 2 9
5 0 3 -7 0 -20 -6 -30z m-13 -45 c-3 -8 -6 -5 -6 6 -1 11 2 17 5 13 3 -3 4
-12 1 -19z m90 -60 c-3 -8 -6 -5 -6 6 -1 11 2 17 5 13 3 -3 4 -12 1 -19z
m3211 -63 c0 -16 -2 -15 -8 5 -4 14 -8 34 -8 45 0 16 2 15 8 -5 4 -14 8 -34 8
-45z m-3221 23 c-3 -8 -6 -5 -6 6 -1 11 2 17 5 13 3 -3 4 -12 1 -19z m-110
-10 c-3 -8 -6 -5 -6 6 -1 11 2 17 5 13 3 -3 4 -12 1 -19z m3351 -118 c0 -22
-1 -22 -8 5 -4 17 -8 41 -8 55 0 22 1 22 8 -5 4 -16 8 -41 8 -55z m-3261 38
c-3 -7 -5 -2 -5 12 0 14 2 19 5 13 2 -7 2 -19 0 -25z m-110 -30 c-3 -8 -6 -5
-6 6 -1 11 2 17 5 13 3 -3 4 -12 1 -19z m100 -20 c-3 -7 -5 -2 -5 12 0 14 2
19 5 13 2 -7 2 -19 0 -25z m3280 -80 c-2 -13 -4 -3 -4 22 0 25 2 35 4 23 2
-13 2 -33 0 -45z m-3290 -10 c-2 -13 -4 -5 -4 17 -1 22 1 32 4 23 2 -10 2 -28
0 -40z m536 7 c4 -8 2 -17 -3 -20 -6 -4 -10 3 -10 14 0 25 6 27 13 6z m2654
-42 c-3 -10 -5 -2 -5 17 0 19 2 27 5 18 2 -10 2 -26 0 -35z m110 -190 c-2 -38
-3 -7 -3 67 0 74 1 105 3 68 2 -38 2 -98 0 -135z m-3410 155 c-3 -7 -5 -2 -5
12 0 14 2 19 5 13 2 -7 2 -19 0 -25z m100 -95 c-2 -21 -4 -4 -4 37 0 41 2 58
4 38 2 -21 2 -55 0 -75z m3210 30 c-3 -10 -5 -2 -5 17 0 19 2 27 5 18 2 -10 2
-26 0 -35z m-2406 20 c13 -17 13 -17 -6 -3 -11 8 -22 16 -24 17 -2 2 0 3 6 3
6 0 17 -8 24 -17z m179 -35 c0 -4 -4 -8 -9 -8 -6 0 -12 4 -15 8 -3 5 1 9 9 9
8 0 15 -4 15 -9z m-493 -45 c-3 -10 -5 -2 -5 17 0 19 2 27 5 18 2 -10 2 -26 0
-35z m2720 -40 c-3 -10 -5 -4 -5 12 0 17 2 24 5 18 2 -7 2 -21 0 -30z m-2730
-20 c-3 -10 -5 -4 -5 12 0 17 2 24 5 18 2 -7 2 -21 0 -30z m1033 10 c0 -3 -7
-3 -15 1 -8 3 -15 0 -15 -6 0 -6 -3 -9 -6 -5 -11 10 6 26 21 20 8 -3 15 -7 15
-10z m90 -13 c0 -4 -8 -7 -17 -5 -10 2 -20 4 -23 4 -3 1 2 5 10 10 15 10 30 6
30 -9z m700 -4 c0 -3 -4 -8 -10 -11 -5 -3 -10 -1 -10 4 0 6 5 11 10 11 6 0 10
-2 10 -4z m-1815 -26 c3 -6 -1 -7 -9 -4 -18 7 -21 14 -7 14 6 0 13 -4 16 -10z
m40 -28 c-3 -3 -11 0 -18 7 -9 10 -8 11 6 5 10 -3 15 -9 12 -12z m-518 -34
c-3 -8 -6 -5 -6 6 -1 11 2 17 5 13 3 -3 4 -12 1 -19z m603 2 c8 -5 11 -10 5
-10 -5 0 -17 5 -25 10 -8 5 -10 10 -5 10 6 0 17 -5 25 -10z m50 -20 c8 -5 11
-10 5 -10 -5 0 -17 5 -25 10 -8 5 -10 10 -5 10 6 0 17 -5 25 -10z m2225 -100
c44 -44 77 -80 75 -80 -3 0 -41 36 -85 80 -44 44 -77 80 -75 80 3 0 41 -36 85
-80z m-2070 50 c13 -5 14 -9 5 -9 -8 0 -24 4 -35 9 -13 5 -14 9 -5 9 8 0 24
-4 35 -9z m52 -16 c-3 -3 -12 -4 -19 -1 -8 3 -5 6 6 6 11 1 17 -2 13 -5z m40
-10 c-3 -3 -12 -4 -19 -1 -8 3 -5 6 6 6 11 1 17 -2 13 -5z m2380 -16 c-3 -8
-6 -5 -6 6 -1 11 2 17 5 13 3 -3 4 -12 1 -19z m-2340 6 c-3 -3 -12 -4 -19 -1
-8 3 -5 6 6 6 11 1 17 -2 13 -5z m83 -14 c20 -6 21 -8 5 -8 -11 0 -33 4 -50 8
-27 7 -27 8 -5 8 14 0 36 -4 50 -8z m1560 0 c-8 -5 -19 -10 -25 -10 -5 0 -3 5
5 10 8 5 20 10 25 10 6 0 3 -5 -5 -10z m-1497 -17 c-7 -2 -19 -2 -25 0 -7 3
-2 5 12 5 14 0 19 -2 13 -5z m1447 -3 c-8 -5 -22 -9 -30 -9 -10 0 -8 3 5 9 27
12 43 12 25 0z m-1397 -7 c-7 -2 -19 -2 -25 0 -7 3 -2 5 12 5 14 0 19 -2 13
-5z m102 -13 c27 -7 27 -8 5 -8 -14 0 -38 4 -55 8 -27 7 -27 8 -5 8 14 0 39
-4 55 -8z m1230 0 c-11 -5 -27 -9 -35 -9 -9 0 -8 4 5 9 11 5 27 9 35 9 9 0 8
-4 -5 -9z m245 -4 c0 -2 -8 -10 -17 -17 -16 -13 -17 -12 -4 4 13 16 21 21 21
13z m-1355 -15 c26 -6 31 -9 15 -9 -14 -1 -43 3 -65 7 -26 6 -31 9 -15 9 14 1
43 -3 65 -7z m1035 -1 c-14 -4 -36 -8 -50 -8 l-25 0 25 8 c14 4 36 8 50 8 l25
0 -25 -8z m-942 -17 c-10 -2 -26 -2 -35 0 -10 3 -2 5 17 5 19 0 27 -2 18 -5z
m855 0 c-7 -2 -21 -2 -30 0 -10 3 -4 5 12 5 17 0 24 -2 18 -5z m-765 -10 c-10
-2 -28 -2 -40 0 -13 2 -5 4 17 4 22 1 32 -1 23 -4z m700 0 c-10 -2 -26 -2 -35
0 -10 3 -2 5 17 5 19 0 27 -2 18 -5z m-611 -9 c-3 -3 -12 -4 -19 -1 -8 3 -5 6
6 6 11 1 17 -2 13 -5z m536 -1 c-7 -2 -21 -2 -30 0 -10 3 -4 5 12 5 17 0 24
-2 18 -5z m-385 -10 c-21 -2 -55 -2 -75 0 -21 2 -4 4 37 4 41 0 58 -2 38 -4z
m285 0 c-18 -2 -48 -2 -65 0 -18 2 -4 4 32 4 36 0 50 -2 33 -4z m-1066 -9 c-3
-3 -12 -4 -19 -1 -8 3 -5 6 6 6 11 1 17 -2 13 -5z m200 -40 c-3 -3 -12 -4 -19
-1 -8 3 -5 6 6 6 11 1 17 -2 13 -5z m60 -10 c-3 -3 -12 -4 -19 -1 -8 3 -5 6 6
6 11 1 17 -2 13 -5z m1190 0 c-3 -3 -12 -4 -19 -1 -8 3 -5 6 6 6 11 1 17 -2
13 -5z m-40 -10 c-3 -3 -12 -4 -19 -1 -8 3 -5 6 6 6 11 1 17 -2 13 -5z m-1014
-11 c-7 -2 -21 -2 -30 0 -10 3 -4 5 12 5 17 0 24 -2 18 -5z m960 0 c-7 -2 -19
-2 -25 0 -7 3 -2 5 12 5 14 0 19 -2 13 -5z m-886 -9 c-3 -3 -12 -4 -19 -1 -8
3 -5 6 6 6 11 1 17 -2 13 -5z m830 0 c-3 -3 -12 -4 -19 -1 -8 3 -5 6 6 6 11 1
17 -2 13 -5z m-764 -11 c-7 -2 -19 -2 -25 0 -7 3 -2 5 12 5 14 0 19 -2 13 -5z
m710 0 c-7 -2 -21 -2 -30 0 -10 3 -4 5 12 5 17 0 24 -2 18 -5z m-90 -10 c-7
-2 -19 -2 -25 0 -7 3 -2 5 12 5 14 0 19 -2 13 -5z m-300 -10 c-24 -2 -62 -2
-85 0 -24 2 -5 4 42 4 47 0 66 -2 43 -4z m180 0 c-24 -2 -62 -2 -85 0 -24 2
-5 4 42 4 47 0 66 -2 43 -4z m-2073 -2023 l0 -120 105 0 105 0 0 120 0 120 55
0 55 0 0 -295 0 -295 -55 0 -55 0 0 120 0 120 -105 0 -105 0 0 -120 0 -120
-55 0 -55 0 0 295 0 295 55 0 55 0 0 -120z m828 -168 c51 -158 93 -291 92
-295 0 -4 -26 -7 -57 -5 l-57 3 -17 55 -16 55 -109 0 -108 0 -16 -55 -16 -55
-58 -3 -58 -3 6 28 c4 15 48 148 98 296 l91 267 66 0 66 0 93 -288z m455 277
c46 -12 100 -58 117 -99 7 -18 11 -55 8 -90 -4 -52 -9 -65 -38 -96 -19 -19
-45 -37 -57 -40 -13 -4 -23 -8 -23 -10 0 -3 33 -59 74 -124 l75 -120 -64 0
-63 0 -68 115 c-63 107 -69 115 -98 115 l-31 0 0 -113 0 -112 -57 -3 -58 -3 0
296 0 295 123 0 c67 0 139 -5 160 -11z m526 -5 c72 -21 134 -83 155 -155 35
-116 13 -260 -51 -330 -64 -71 -99 -83 -250 -87 l-133 -4 0 296 0 296 113 0
c74 0 132 -5 166 -16z m381 -104 l0 -120 105 0 105 0 0 120 0 120 55 0 55 0 0
-295 0 -295 -55 0 -55 0 0 120 0 120 -105 0 -105 0 0 -120 0 -120 -55 0 -55 0
0 295 0 295 55 0 55 0 0 -120z m819 -162 c51 -156 95 -289 98 -295 3 -10 -12
-13 -56 -13 l-61 0 -17 60 -18 60 -106 0 -106 0 -17 -60 -17 -60 -61 0 c-44 0
-59 3 -56 13 3 6 47 139 99 295 l94 282 65 0 66 0 93 -282z m492 278 c2 -2 2
-27 1 -55 l-4 -51 -74 0 -74 0 0 -240 0 -240 -57 0 -58 0 3 240 3 240 -81 0
-80 0 0 55 0 55 208 0 c115 0 211 -2 213 -4z"/>
<path d="M1186 4844 c-10 -25 1 -29 14 -5 6 12 7 21 1 21 -5 0 -12 -7 -15 -16z"/>
<path d="M1116 4813 c-10 -10 -7 -25 4 -18 5 3 7 0 4 -8 -3 -9 3 -16 15 -20
19 -5 26 3 22 26 0 4 4 7 11 7 6 0 8 3 5 7 -9 9 -54 13 -61 6z"/>
<path d="M4120 4745 c0 -5 5 -17 10 -25 5 -8 10 -10 10 -5 0 6 -5 17 -10 25
-5 8 -10 11 -10 5z"/>
<path d="M4066 4667 c3 -10 9 -15 12 -12 3 3 0 11 -7 18 -10 9 -11 8 -5 -6z"/>
<path d="M4152 4658 c2 -16 5 -28 9 -28 4 0 5 -10 1 -22 -3 -13 -1 -19 6 -15
5 4 13 1 15 -5 4 -9 6 -8 6 2 0 8 -8 33 -19 55 -17 36 -19 37 -18 13z"/>
<path d="M4121 4603 c7 -10 14 -19 15 -21 1 -2 4 4 8 13 3 9 2 13 -4 10 -6 -3
-10 -1 -10 4 0 6 -5 11 -11 11 -8 0 -7 -6 2 -17z"/>
<path d="M3662 4200 c0 -14 2 -19 5 -12 2 6 2 18 0 25 -3 6 -5 1 -5 -13z"/>
<path d="M1675 4120 c-3 -5 -1 -10 4 -10 6 0 11 5 11 10 0 6 -2 10 -4 10 -3 0
-8 -4 -11 -10z"/>
<path d="M3131 4054 c0 -11 3 -14 6 -6 3 7 2 16 -1 19 -3 4 -6 -2 -5 -13z"/>
<path d="M1995 4020 c4 -6 11 -8 16 -5 14 9 11 15 -7 15 -8 0 -12 -5 -9 -10z"/>
<path d="M3366 4005 c4 -8 8 -15 10 -15 2 0 4 7 4 15 0 8 -4 15 -10 15 -5 0
-7 -7 -4 -15z"/>
<path d="M2190 4004 c0 -2 9 -8 20 -14 15 -8 18 -8 14 3 -4 11 -34 21 -34 11z"/>
<path d="M2850 3950 c0 -5 5 -10 11 -10 5 0 7 5 4 10 -3 6 -8 10 -11 10 -2 0
-4 -4 -4 -10z"/>
<path d="M2787 3933 c-4 -3 -7 -11 -7 -17 0 -6 5 -5 12 2 6 6 9 14 7 17 -3 3
-9 2 -12 -2z"/>
<path d="M1592 1335 c-18 -57 -32 -109 -32 -115 0 -6 28 -10 71 -10 60 0 70 2
65 15 -3 9 -20 60 -37 115 -17 55 -32 100 -33 100 -1 0 -16 -47 -34 -105z"/>
<path d="M2072 1398 l3 -83 29 -3 c49 -6 116 8 137 29 19 19 25 62 13 94 -11
27 -60 45 -124 45 l-61 0 3 -82z"/>
<path d="M2590 1290 l0 -190 68 0 c113 0 160 46 170 166 11 139 -53 214 -183
214 l-55 0 0 -190z"/>
<path d="M3776 1338 c-16 -51 -31 -101 -33 -110 -5 -16 3 -18 67 -18 64 0 72
2 67 18 -24 85 -63 202 -67 202 -3 0 -18 -42 -34 -92z"/>
</g>
</svg>
