<?xml version="1.0" standalone="no"?>
<!DOCTYPE svg PUBLIC "-//W3C//DTD SVG 20010904//EN"
 "http://www.w3.org/TR/2001/REC-SVG-20010904/DTD/svg10.dtd">
<svg version="1.0" xmlns="http://www.w3.org/2000/svg"
 width="532.000000pt" height="684.000000pt" viewBox="0 0 532.000000 684.000000"
 preserveAspectRatio="xMidYMid meet">

<g transform="translate(0.000000,684.000000) scale(0.100000,-0.100000)"
fill="#000000" stroke="none">
<path d="M0 3420 l0 -3420 2660 0 2660 0 0 3420 0 3420 -2660 0 -2660 0 0
-3420z m2818 2233 c-16 -2 -40 -2 -55 0 -16 2 -3 4 27 4 30 0 43 -2 28 -4z
m-140 -10 c-15 -2 -42 -2 -60 0 -18 2 -6 4 27 4 33 0 48 -2 33 -4z m275 0
c-13 -2 -33 -2 -45 0 -13 2 -3 4 22 4 25 0 35 -2 23 -4z m-385 -10 c-10 -2
-26 -2 -35 0 -10 3 -2 5 17 5 19 0 27 -2 18 -5z m470 0 c-10 -2 -26 -2 -35 0
-10 3 -2 5 17 5 19 0 27 -2 18 -5z m-535 -10 c-7 -2 -21 -2 -30 0 -10 3 -4 5
12 5 17 0 24 -2 18 -5z m627 -3 c20 -6 21 -8 5 -8 -11 0 -33 4 -50 8 -27 7
-27 8 -5 8 14 0 36 -4 50 -8z m-775 -30 c-166 -46 -319 -110 -445 -185 -27
-16 -35 -19 -20 -6 91 73 453 219 545 220 11 0 -25 -13 -80 -29z m880 5 c54
-17 33 -18 -30 -1 -27 8 -41 14 -30 14 11 0 38 -5 60 -13z m-518 -51 c-3 -3
-12 -4 -19 -1 -8 3 -5 6 6 6 11 1 17 -2 13 -5z m723 -19 c14 -8 21 -14 15 -14
-5 0 -21 6 -35 14 -14 8 -20 14 -15 14 6 0 21 -6 35 -14z m95 -45 c3 -6 -1 -7
-9 -4 -18 7 -21 14 -7 14 6 0 13 -4 16 -10z m-1705 -123 c0 -2 -15 -13 -32
-26 l-33 -22 28 25 c26 24 37 31 37 23z m-70 -50 c0 -2 -10 -12 -22 -23 l-23
-19 19 23 c18 21 26 27 26 19z m-50 -40 c0 -2 -17 -19 -37 -38 l-38 -34 34 38
c33 34 41 42 41 34z m2171 -14 c13 -16 12 -17 -3 -4 -10 7 -18 15 -18 17 0 8
8 3 21 -13z m-2329 -139 c-42 -44 -61 -61 -42 -39 57 65 114 125 117 122 1 -2
-32 -39 -75 -83z m218 62 c0 -2 -8 -10 -17 -17 -16 -13 -17 -12 -4 4 13 16 21
21 21 13z m2331 -143 c13 -16 12 -17 -3 -4 -17 13 -22 21 -14 21 2 0 10 -8 17
-17z m-2481 -6 c0 -2 -10 -12 -22 -23 l-23 -19 19 23 c18 21 26 27 26 19z
m-150 -10 c0 -2 -10 -12 -22 -23 l-23 -19 19 23 c18 21 26 27 26 19z m-40 -51
c0 -2 -8 -10 -17 -17 -16 -13 -17 -12 -4 4 13 16 21 21 21 13z m120 -20 c0 -2
-8 -10 -17 -17 -16 -13 -17 -12 -4 4 13 16 21 21 21 13z m-96 -131 c-9 -14
-18 -25 -21 -25 -5 0 5 18 20 38 17 22 18 13 1 -13z m-159 -55 c-9 -16 -18
-30 -21 -30 -2 0 2 14 11 30 9 17 18 30 21 30 2 0 -2 -13 -11 -30z m1093 -132
c-1 -38 -2 -39 -5 -10 -3 22 -8 30 -16 25 -7 -4 -6 0 2 10 19 24 21 22 19 -25z
m-1157 9 c-10 -9 -11 -8 -5 6 3 10 9 15 12 12 3 -3 0 -11 -7 -18z m1089 -30
c0 -2 -19 -21 -42 -42 l-43 -40 40 43 c36 39 45 47 45 39z m67 -134 c-2 -16
-4 -3 -4 27 0 30 2 43 4 28 2 -16 2 -40 0 -55z m-1216 10 c-12 -20 -14 -14 -5
12 4 9 9 14 11 11 3 -2 0 -13 -6 -23z m-74 -335 c-3 -8 -6 -5 -6 6 -1 11 2 17
5 13 3 -3 4 -12 1 -19z m-10 -95 c-3 -10 -5 -4 -5 12 0 17 2 24 5 18 2 -7 2
-21 0 -30z m803 -2681 l0 -198 90 88 90 88 72 0 73 0 -92 -91 -92 -91 93 -136
c51 -76 95 -141 98 -147 4 -6 -20 -10 -63 -10 l-69 1 -70 108 -71 109 -29 -28
c-27 -26 -29 -35 -32 -108 l-3 -80 -55 -1 -55 0 -3 347 -2 347 60 0 60 0 0
-198z m769 172 c56 -28 96 -77 107 -131 6 -31 5 -31 -46 -42 -29 -6 -54 -10
-55 -9 -1 2 -7 17 -14 35 -23 56 -89 82 -160 63 -47 -12 -71 -42 -71 -85 0
-46 32 -70 141 -105 167 -54 219 -103 219 -207 0 -65 -33 -119 -94 -158 -47
-28 -55 -30 -150 -30 -89 0 -106 3 -146 25 -49 28 -97 89 -106 136 l-6 31 54
6 c43 4 55 2 63 -11 6 -9 25 -32 43 -50 32 -34 34 -34 102 -30 83 4 120 30
120 84 0 45 -32 68 -150 104 -116 36 -171 72 -194 129 -41 105 -2 205 99 252
63 29 177 26 244 -7z m1058 -210 c70 -53 82 -96 83 -306 l0 -148 -60 0 -60 0
0 156 c0 92 -4 164 -11 176 -15 29 -73 50 -115 42 -59 -11 -64 -28 -64 -211
l0 -163 -60 0 -60 0 0 235 0 235 60 0 c58 0 60 -1 60 -27 0 -24 2 -25 13 -10
38 50 159 62 214 21z m474 15 c51 -18 97 -56 120 -101 11 -22 19 -41 17 -42
-2 -2 -24 -8 -51 -15 -47 -11 -47 -11 -78 24 -37 42 -81 53 -133 31 -90 -37
-100 -197 -16 -253 54 -37 112 -28 156 24 20 23 23 24 67 12 51 -12 54 -17 33
-57 -45 -87 -163 -125 -280 -90 -116 35 -185 192 -141 319 41 116 188 187 306
148z m-2521 -51 c0 -53 0 -53 -110 -178 -60 -69 -110 -128 -110 -132 0 -5 52
-8 115 -8 l115 0 0 -55 0 -55 -195 0 -195 0 0 51 c0 51 0 51 116 182 l116 132
-116 3 -116 3 0 54 0 55 190 0 190 0 0 -52z m1341 -114 l56 -166 59 166 59
166 63 0 c47 0 63 -3 59 -12 -3 -7 -65 -158 -137 -335 l-133 -323 -58 0 c-33
0 -59 4 -59 8 0 5 18 52 40 105 22 52 40 102 40 110 0 8 -38 109 -85 225 -47
116 -85 214 -85 217 0 3 28 5 63 5 l62 0 56 -166z"/>
</g>
</svg>
